<svg xmlns="http://www.w3.org/2000/svg" width="1200" height="380" viewBox="0 0 1200 380">
  <title>Managed Hosting</title>
  <rect width="100%" height="100%" fill="#FFF7EE"/>
  <rect x="30" y="30" width="1140" height="320" rx="26" fill="#fff" stroke="#3B2F2F" stroke-width="4"/>
<text x="80" y="130" font-family="Arial" font-size="54" font-weight="700" fill="#2F2521">Managed Hosting</text>
<text x="82" y="175" font-family="Arial" font-size="28" fill="#2F2521">Fast, secure uptime and maintenance</text>
<g><rect x="760" y="95" width="340" height="210" rx="12" fill="#fff" stroke="#3B2F2F" stroke-width="4"/>
    <rect x="780" y="110" width="300" height="30" rx="8" fill="#F28C52"/>
    <text x="930.0" y="131" text-anchor="middle" font-family="Arial" font-size="16" fill="white" font-weight="700">WrenchWorks</text>
    <rect x="778" y="155" width="304" height="75" rx="8" fill="#F9EFE3"/>
    </g>

<g transform="translate(670,185) scale(1.1)">
  <circle cx="0" cy="0" r="30" fill="#FFD9B3" stroke="#3B2F2F" stroke-width="4"/>
  <circle cx="-10" cy="-5" r="3" fill="#3B2F2F"/>
  <circle cx="10" cy="-5" r="3" fill="#3B2F2F"/>
  <path d="M-10,10 Q0,18 10,10" stroke="#3B2F2F" stroke-width="4" fill="none" stroke-linecap="round"/>
  <rect x="-22" y="32" width="44" height="52" rx="16" fill="#6BBF59" stroke="#3B2F2F" stroke-width="4"/>
  <line x1="-22" y1="46" x2="22" y2="46" stroke="#3B2F2F" stroke-width="3"/>
  <line x1="-28" y1="44" x2="-48" y2="60" stroke="#3B2F2F" stroke-width="4" stroke-linecap="round"/>
  <line x1="28" y1="44" x2="48" y2="60" stroke="#3B2F2F" stroke-width="4" stroke-linecap="round"/>
</g>

<text x="84" y="255" font-size="60">🛡️</text>
</svg>