<svg width="1400" height="420" viewBox="0 0 1400 420" xmlns="http://www.w3.org/2000/svg" fill="none">
  <defs>
    <linearGradient id="gold" x1="0" y1="0" x2="1" y2="1">
      <stop offset="0" stop-color="#F3D487"/>
      <stop offset="0.5" stop-color="#C8A24A"/>
      <stop offset="1" stop-color="#9B742C"/>
    </linearGradient>
    <radialGradient id="badge" cx="0.35" cy="0.3" r="0.9">
      <stop offset="0" stop-color="#2A2D31"/>
      <stop offset="0.55" stop-color="#101215"/>
      <stop offset="1" stop-color="#050608"/>
    </radialGradient>
  </defs>

  <rect width="1400" height="420" fill="#FFFFFF"/>

  <g transform="translate(70,70)">
    <g transform="translate(140,140)">
      <g fill="url(#gold)">
        <rect x="-18" y="-148" width="36" height="42" rx="9"/>
        <rect x="-18" y="106" width="36" height="42" rx="9"/>
        <rect x="106" y="-18" width="42" height="36" rx="9"/>
        <rect x="-148" y="-18" width="42" height="36" rx="9"/>
      </g>
      <circle r="118" fill="url(#gold)"/>
      <circle r="98" fill="#0A0C10"/>
      <circle r="90" fill="url(#badge)"/>
      <g transform="translate(-48,-46)" fill="url(#gold)">
        <rect x="0" y="0" width="24" height="92" rx="4"/>
        <rect x="0" y="0" width="60" height="20" rx="4"/>
        <rect x="0" y="36" width="52" height="18" rx="4"/>
        <rect x="74" y="0" width="24" height="92" rx="4"/>
        <rect x="74" y="0" width="54" height="20" rx="10"/>
        <rect x="74" y="36" width="50" height="18" rx="9"/>
        <rect x="74" y="72" width="54" height="20" rx="10"/>
      </g>
    </g>
  </g>

  <g transform="translate(420,130)">
    <text x="0" y="110" font-family="Inter, Montserrat, Arial, sans-serif" font-size="94" font-weight="800" fill="#121212" letter-spacing="-2">FULL BAY</text>
    <g transform="translate(0,138)">
      <line x1="0" y1="22" x2="90" y2="22" stroke="url(#gold)" stroke-width="4" stroke-linecap="round"/>
      <text x="114" y="34" font-family="Inter, Montserrat, Arial, sans-serif" font-size="56" font-weight="700" fill="url(#gold)" letter-spacing="10">MEDIA</text>
      <line x1="448" y1="22" x2="538" y2="22" stroke="url(#gold)" stroke-width="4" stroke-linecap="round"/>
    </g>
  </g>
</svg>
