<svg width="1200" height="400" viewBox="0 0 1200 400" xmlns="http://www.w3.org/2000/svg" fill="none">
  <rect width="1200" height="400" fill="#121212"/>
  <g transform="translate(84,84)">
    <circle cx="116" cy="116" r="110" stroke="#C8A24A" stroke-width="12"/>
    <path d="M48 170V62H88C118 62 136 78 136 104C136 130 118 146 88 146H72V170H48ZM72 127H86C100 127 111 120 111 104C111 88 100 81 86 81H72V127Z" fill="#FFFFFF"/>
    <path d="M142 170V62H172V108L210 62H246L200 114L248 170H211L176 128L172 132V170H142Z" fill="#C8A24A" opacity="0.95"/>
  </g>
  <g transform="translate(360,142)">
    <text x="0" y="70" font-family="Montserrat, Inter, Arial, sans-serif" font-size="70" font-weight="600" fill="#FFFFFF" letter-spacing="-1">Full Bay Media</text>
    <line x1="0" y1="98" x2="640" y2="98" stroke="#C8A24A" stroke-width="3"/>
    <text x="0" y="138" font-family="Inter, Arial, sans-serif" font-size="26" font-weight="400" fill="#D6D6D6" letter-spacing="2">WEBSITES · SEO · GBP · REVIEWS</text>
  </g>
</svg>
